<svg xmlns="http://www.w3.org/2000/svg" width="300.68" height="265.667" viewBox="0 0 300.68 265.667">
  <g id="Gruppe_6409" data-name="Gruppe 6409" transform="translate(3 3)">
    <path id="Pfad_3448" data-name="Pfad 3448" d="M880.366,272.895c-3.668,0-6.658-2.682-6.665-5.978l-.142-63.469a5.643,5.643,0,0,1,1.687-4.012,7.06,7.06,0,0,1,4.985-2,7.323,7.323,0,0,1,3.132.7l62.175,31.835a5.726,5.726,0,0,1-.086,10.542l-61.88,31.633A7.409,7.409,0,0,1,880.366,272.895Zm.34-69.372-1.218.157L879.7,266.9l.665-.009a1.276,1.276,0,0,0,.553-.121l61.88-31.633Z" transform="translate(-651.305 -88.762)" fill="#fff"/>
    <g id="Gruppe_6407" data-name="Gruppe 6407" transform="translate(115.293)">
      <path id="Rechteck_1673" data-name="Rechteck 1673" d="M4.44-3H104.506a7.449,7.449,0,0,1,7.44,7.44V73.108a7.449,7.449,0,0,1-7.44,7.44H4.44A7.449,7.449,0,0,1-3,73.108V4.44A7.449,7.449,0,0,1,4.44-3ZM104.506,74.549a1.442,1.442,0,0,0,1.44-1.44V4.44A1.442,1.442,0,0,0,104.506,3H4.44A1.442,1.442,0,0,0,3,4.44V73.108a1.442,1.442,0,0,0,1.44,1.44Z" fill="#fff"/>
      <path id="Pfad_3449" data-name="Pfad 3449" d="M808.462,179.678a3,3,0,0,1-2.039-5.2l37.826-35.025a3,3,0,0,1,3.991-.076l38.385,32.9h29.712a3,3,0,0,1,0,6H885.515a3,3,0,0,1-1.952-.722l-37.2-31.884L810.5,178.879A2.989,2.989,0,0,1,808.462,179.678Z" transform="translate(-808.392 -124.842)" fill="#fff"/>
      <path id="Pfad_3450" data-name="Pfad 3450" d="M838.249,162.053q-.468,0-.937-.015a25.5,25.5,0,0,1-18.237-8.052,3,3,0,1,1,4.47-4,19.485,19.485,0,0,0,13.958,6.057,22.561,22.561,0,0,0,15.849-5.731,3,3,0,0,1,4,4.47A28.511,28.511,0,0,1,838.249,162.053Z" transform="translate(-800.506 -118.501)" fill="#fff"/>
    </g>
    <path id="Pfad_3451" data-name="Pfad 3451" d="M767.778,318.7c-3.3,0-6.934-.368-8.862-3.1s-1-6.23-.149-8.634l15.776-45.037.87-2.363c1.467-4.122,3.13-8.793,10.151-8.793H933.43c7.925.42,9.992,5.917,11.36,9.554l.56,1.444,16.892,45.15c.926,2.419,1.766,5.557-.043,8.186-2.136,3.105-6.7,3.533-11.321,3.533l-1.374-.015H770.386C769.55,318.67,768.629,318.7,767.778,318.7Zm-3.947-6.538c.014,0,.651.538,3.947.538.758,0,1.578-.026,2.457-.07l179.332,0,1.311.014c5.492,0,6.35-.9,6.384-.943a5.7,5.7,0,0,0-.632-2.653l-16.86-45.072-.6-1.534c-1.35-3.59-2.226-5.473-5.9-5.67l-147.705,0c-2.633,0-2.981.543-4.5,4.806l-.9,2.435-15.743,44.95c-.888,2.5-.6,3.191-.595,3.2Z" transform="translate(-722.359 -56.031)" fill="#fff"/>
    <path id="Linie_54" data-name="Linie 54" d="M0,61.136a3,3,0,0,1-.939-.151A3,3,0,0,1-2.85,57.2L16.29-.938A3,3,0,0,1,20.078-2.85,3,3,0,0,1,21.989.938L2.85,59.073A3,3,0,0,1,0,61.136Z" transform="translate(64.636 199.35)" fill="#fff"/>
    <path id="Pfad_3452" data-name="Pfad 3452" d="M832.127,301.035a3,3,0,0,1-3-3l-.011-4.321c-.078-20.068-.175-45.044,14.677-59.953,8.807-8.841,21.491-13.139,38.776-13.139a3,3,0,0,1,0,6c-15.608,0-26.9,3.72-34.525,11.374-13.093,13.144-13.005,35.751-12.928,55.7l.011,4.344A3,3,0,0,1,832.127,301.035Z" transform="translate(-678.589 -74.536)" fill="#fff"/>
    <path id="Linie_55" data-name="Linie 55" d="M0,47.54H-.01A3,3,0,0,1-3,44.53L-2.848-.01A3,3,0,0,1,.162-3,3,3,0,0,1,3.152.01L3,44.551A3,3,0,0,1,0,47.54Z" transform="translate(154.074 99.183)" fill="#fff"/>
    <path id="Pfad_3453" data-name="Pfad 3453" d="M831.015,320.015h0a3,3,0,0,1-3-3l.061-17.368c.061-12.314.145-29.361.145-57.581,0-33.2-25.894-45.729-48.068-46.372a3,3,0,0,1,.174-6c32.739.949,53.894,21.505,53.894,52.369,0,28.234-.084,45.29-.145,57.611l-.061,17.339A3,3,0,0,1,831.015,320.015Z" transform="translate(-710.418 -93.516)" fill="#fff"/>
    <g id="Gruppe_6408" data-name="Gruppe 6408" transform="translate(0 32.369)">
      <path id="Rechteck_1674" data-name="Rechteck 1674" d="M8.485-3h27.6A11.5,11.5,0,0,1,47.575,8.485V18.9A11.5,11.5,0,0,1,36.09,30.386H8.485A11.5,11.5,0,0,1-3,18.9V8.485A11.5,11.5,0,0,1,8.485-3Zm27.6,27.386A5.491,5.491,0,0,0,41.575,18.9V8.485A5.491,5.491,0,0,0,36.09,3H8.485A5.491,5.491,0,0,0,3,8.485V18.9a5.491,5.491,0,0,0,5.485,5.485Z" transform="translate(0 65.72)" fill="#fff"/>
      <path id="Linie_56" data-name="Linie 56" d="M.268,82.69a3,3,0,0,1-3-2.99L-3,.01A3,3,0,0,1-.01-3,3,3,0,0,1,3-.01l.268,79.69a3,3,0,0,1-2.99,3.01Z" transform="translate(44.307)" fill="#fff"/>
      <path id="Pfad_3454" data-name="Pfad 3454" d="M788.578,188.907h-.043c-22.571-.319-27.105-14.628-27.105-37.613a3,3,0,0,1,6,0c0,23.7,5.149,31.386,21.19,31.613a3,3,0,0,1-.042,6Z" transform="translate(-720.122 -151.294)" fill="#fff"/>
    </g>
  </g>
</svg>
