<svg xmlns="http://www.w3.org/2000/svg" width="267.095" height="266.577" viewBox="0 0 267.095 266.577">
  <g id="Gruppe_6421" data-name="Gruppe 6421" transform="translate(2.001 2.964)">
    <path id="Pfad_3428" data-name="Pfad 3428" d="M915.372,585.109v-3l-.067-6.019a194.155,194.155,0,0,1,1.362-29.08c1.689-15.166,7.791-23.42,11.829-28.883l1.417-1.943a6.018,6.018,0,0,0,1.144-2.414c-.216.276-1.011.563-2.094,1.381-5.679,4.3-14.231,10.78-30.318,13.785-9.155,1.709-18.595,1.69-34.234,1.658l-6.006-.01.01-6,6.008.01c15.29.031,24.518.049,33.121-1.556A58.628,58.628,0,0,0,924.77,510.8c5.144-3.885,8.781-3.165,10.662-1.342s2.718,5.47-.62,10.191l-1.491,2.046c-3.875,5.241-9.181,12.419-10.691,25.98a189.041,189.041,0,0,0-1.326,28.315c.033,1.978.067,3.97.067,6.118v3Z" transform="translate(-671.989 -510.945)" fill="#fff"/>
    <path id="Rechteck_1589" data-name="Rechteck 1589" d="M8.445-3H19.869A11.458,11.458,0,0,1,31.314,8.445V66.689A11.458,11.458,0,0,1,19.869,78.133H8.445A11.458,11.458,0,0,1-3,66.689V8.445A11.458,11.458,0,0,1,8.445-3ZM19.869,72.133a5.451,5.451,0,0,0,5.445-5.445V8.445A5.451,5.451,0,0,0,19.869,3H8.445A5.451,5.451,0,0,0,3,8.445V66.689a5.451,5.451,0,0,0,5.445,5.445Z" transform="translate(9.617 185.479)" fill="#fff"/>
    <path id="Rechteck_1590" data-name="Rechteck 1590" d="M8.812-3H19.5A11.825,11.825,0,0,1,31.314,8.812V110.121A11.825,11.825,0,0,1,19.5,121.933H8.812A11.825,11.825,0,0,1-3,110.121V8.812A11.825,11.825,0,0,1,8.812-3ZM19.5,115.933a5.818,5.818,0,0,0,5.812-5.812V8.812A5.818,5.818,0,0,0,19.5,3H8.812A5.818,5.818,0,0,0,3,8.812V110.121a5.818,5.818,0,0,0,5.812,5.812Z" transform="translate(75.24 141.68)" fill="#fff"/>
    <path id="Rechteck_1591" data-name="Rechteck 1591" d="M8.812-3H19.5A11.825,11.825,0,0,1,31.314,8.812V85.189A11.825,11.825,0,0,1,19.5,97H8.812A11.825,11.825,0,0,1-3,85.189V8.812A11.825,11.825,0,0,1,8.812-3ZM19.5,91a5.818,5.818,0,0,0,5.812-5.812V8.812A5.818,5.818,0,0,0,19.5,3H8.812A5.818,5.818,0,0,0,3,8.812V85.189A5.818,5.818,0,0,0,8.812,91Z" transform="translate(140.864 166.612)" fill="#fff"/>
    <path id="Rechteck_1592" data-name="Rechteck 1592" d="M8.812-3H19.5A11.825,11.825,0,0,1,31.314,8.812V132.23A11.825,11.825,0,0,1,19.5,144.042H8.812A11.825,11.825,0,0,1-3,132.23V8.812A11.825,11.825,0,0,1,8.812-3ZM19.5,138.042a5.818,5.818,0,0,0,5.812-5.812V8.812A5.818,5.818,0,0,0,19.5,3H8.812A5.818,5.818,0,0,0,3,8.812V132.23a5.818,5.818,0,0,0,5.812,5.812Z" transform="translate(206.487 119.571)" fill="#fff"/>
    <path id="Pfad_3429" data-name="Pfad 3429" d="M745.507,619.892l-4-4.47,78.57-70.361a18,18,0,0,1,25.084,1.16l43.88,47.281a13.5,13.5,0,0,0,19.4.409l92.634-90.939,4.2,4.282-92.625,90.929a19.5,19.5,0,0,1-28.014-.6L840.76,550.3a11.972,11.972,0,0,0-16.683-.772Z" transform="translate(-743.505 -501.529)" fill="#fff"/>
  </g>
</svg>
