<svg xmlns="http://www.w3.org/2000/svg" width="250.653" height="265.487" viewBox="0 0 250.653 265.487">
  <g id="Gruppe_6886" data-name="Gruppe 6886" transform="translate(5321.234 -3070.776)">
    <path id="Pfad_3455" data-name="Pfad 3455" d="M706.5,669.813l-89.663-18.737a15.946,15.946,0,0,0-3.264-.338H601.536a21.979,21.979,0,0,1-21.955-21.954V606.252A21.98,21.98,0,0,1,601.536,584.3h14.057a15.93,15.93,0,0,0,3.3-.344l87.007-18.4,1.134,1.65c.665.967,16.282,23.987,16.26,49.972-.024,27.824-15.022,50.052-15.66,50.985ZM601.536,590.3a15.973,15.973,0,0,0-15.955,15.955v22.532a15.973,15.973,0,0,0,15.955,15.954h12.041a21.947,21.947,0,0,1,4.492.465l85.665,17.9c3.35-5.536,13.541-24.165,13.56-45.933.017-20.289-10.68-39.289-14.141-44.9l-83.017,17.554a21.942,21.942,0,0,1-4.543.474Z" transform="translate(-5793.875 2598.333)" fill="#fff"/>
    <g id="Gruppe_6412" data-name="Gruppe 6412" transform="translate(-5267.25 3073.77)">
      <g id="Gruppe_6411" data-name="Gruppe 6411" transform="translate(0.433)">
        <path id="Pfad_3458" data-name="Pfad 3458" d="M687.452,611.878,687.42,529.1a15.831,15.831,0,0,0-16.013-15.606H566.9a15.831,15.831,0,0,0-16.013,15.6v52.4h-6V529.1A21.836,21.836,0,0,1,566.9,507.5H671.407a21.836,21.836,0,0,1,22.013,21.6l.032,82.778Z" transform="translate(-547.882 -510.493)" fill="#fff"/>
        <path id="Pfad_3459" data-name="Pfad 3459" d="M671.407,715.5H566.9a21.836,21.836,0,0,1-22.013-21.6V606.279h6V693.9A15.83,15.83,0,0,0,566.9,709.5H671.407a15.83,15.83,0,0,0,16.013-15.6l.032-57.577h6L693.42,693.9a21.835,21.835,0,0,1-22.013,21.6Z" transform="translate(-547.882 -453.007)" fill="#fff"/>
      </g>
      <path id="Linie_57" data-name="Linie 57" d="M0,3.187v-6L144.568-3l.008,6Z" transform="translate(0 226.403)" fill="#fff"/>
      <path id="Linie_58" data-name="Linie 58" d="M140.369,3.808-.017,3,.017-3,140.4-2.192Z" transform="translate(2.349 31.664)" fill="#fff"/>
    </g>
    <path id="Pfad_3460" data-name="Pfad 3460" d="M659.2,716.71h-6V558.553c-9.565-2.661-41.28-8.678-67.88-.006-22.7,7.4-48.324,4.666-65.827,1.072l-.743,73.145c13.93,3.848,39.941,8.069,63.051-.026,11.845-4.15,25.458-5.972,40.458-5.417l-.222,6c-14.248-.527-27.118,1.183-38.253,5.084-24.562,8.6-51.867,4.2-65.957.809a6.611,6.611,0,0,1-5.078-6.445V560.238a6.622,6.622,0,0,1,7.948-6.5c16.795,3.449,41.315,6.092,62.762-.9,28.057-9.147,61.118-2.889,70.582-.753a6.583,6.583,0,0,1,5.157,6.463Z" transform="translate(-5833.983 2585.582)" fill="#fff"/>
    <path id="Linie_59" data-name="Linie 59" d="M3,54.01H-3V0H3Z" transform="translate(-5198.016 3245.037)" fill="#fff"/>
  </g>
</svg>
