<?xml version="1.0" encoding="utf-8"?>
<!-- Generator: Adobe Illustrator 25.3.1, SVG Export Plug-In . SVG Version: 6.00 Build 0)  -->
<svg version="1.1" id="Ebene_1" xmlns="http://www.w3.org/2000/svg" xmlns:xlink="http://www.w3.org/1999/xlink" x="0px" y="0px"
	 viewBox="0 0 1050 450" style="enable-background:new 0 0 1050 450;" xml:space="preserve">
<style type="text/css">
	.st0{fill:url(#Pfad_3536_1_);}
	.st1{fill:none;stroke:#FFFFFF;stroke-width:3;stroke-linecap:square;stroke-miterlimit:10;}
	.st2{fill:none;stroke:#FFFFFF;stroke-width:3;stroke-miterlimit:10;}
	.st3{fill:#FFFFFF;}
	.st4{enable-background:new    ;}
	.st5{fill:none;stroke:#FFFFFF;stroke-width:2;stroke-linejoin:round;}
</style>
<g>
	
		<linearGradient id="Pfad_3536_1_" gradientUnits="userSpaceOnUse" x1="473.6533" y1="322.3843" x2="474.6683" y2="323.3843" gradientTransform="matrix(881.493 0 0 -275 -417432.2812 89010.4297)">
		<stop  offset="0" style="stop-color:#E84347"/>
		<stop  offset="1" style="stop-color:#3D358A"/>
	</linearGradient>
	<path id="Pfad_3536" class="st0" d="M93.6,80.9c0,0,5.9,16.2,47.5,38.3c67.2,35.7,75.3,46.2,285.5,77s345.6,65.5,432.9,96.5
		s115.6,62.5,115.6,62.5l-881.5,0.6V80.9z"/>
	<g id="Gruppe_6670" transform="translate(27.521 1.5)">
		<path id="Pfad_3518" class="st1" d="M49.1,69.3c4.3-2.5,8.1-5.6,11.4-9.3c4.1-4.8,4.1-8.9,4.5-11.4c0.5-2.7,2.4-2.6,2.8,0
			c0.4,4.1,2,8,4.7,11.2c4.2,5.4,11.3,9.5,11.3,9.5"/>
		<line id="Linie_73" class="st2" x1="66.4" y1="47.1" x2="66.4" y2="355.3"/>
	</g>
	<g id="Gruppe_6825" transform="translate(948.521 291.597) rotate(90)">
		<path id="Pfad_3518-2" class="st1" d="M46.6-26.4c4.3-2.5,8.1-5.6,11.4-9.3c4.1-4.8,4.1-8.9,4.5-11.4c0.5-2.7,2.4-2.6,2.8,0
			c0.4,4.1,2,8,4.6,11.2c4.2,5.4,11.3,9.5,11.3,9.5"/>
		<line id="Linie_73-2" class="st2" x1="63.9" y1="-48.5" x2="63.9" y2="855.6"/>
	</g>
	<g id="Gruppe_6826" transform="translate(688.194 79.653)">
		<path id="Pfad_3106_1_" class="st3" d="M72.2,46.6l-5,16h-2.8l-3.7-11.8L57,62.6h-2.8l-5-16h3l3.6,11.9l3.7-11.9H62l3.7,11.9
			l3.6-11.9H72.2z"/>
		<path id="Pfad_3107_1_" class="st3" d="M104,77.3h-8l-1.7,3.8h-3l7.3-16h2.9l7.3,16h-3.1L104,77.3z M97.1,74.9h5.9l-3-6.8
			L97.1,74.9z"/>
		<path id="Pfad_3108_1_" class="st3" d="M107.4,51.7c0,3.3-2,5.1-5.7,5.1H78v5.9h-2.8v-16h26.5C105.4,46.6,107.4,48.4,107.4,51.7z
			 M104.5,51.7c0-1.8-1-2.6-3.2-2.6H78v5.2h23.3C103.5,54.3,104.5,53.4,104.5,51.7L104.5,51.7z"/>
		<path id="Pfad_3109_1_" class="st3" d="M91.8,65.1l-6,13.5l-13-13.5H71l-13,13.5l-5.9-13.5h-3l7,16h3.5l12.2-12.9l12.2,12.9h3.5
			l7-16H91.8z"/>
	</g>
	<g class="st4">
		<path class="st3" d="M495.3,394.7v1.7h5.2v2.3h-5.2v3.3h-2.7v-9.5h8.8v2.3H495.3z"/>
		<path class="st3" d="M512.1,399.6v2.3h-8.5v-9.5h2.7v7.2H512.1z"/>
		<path class="st3" d="M517.1,394.6v1.5h5.2v2h-5.2v1.5h6.1v2.2h-8.8v-9.5h8.8v2.2H517.1z"/>
		<path class="st3" d="M532.2,401.9l-2.1-3l-2.1,3h-3.2l3.6-4.9l-3.4-4.6h3.3l1.9,2.8l1.9-2.8h3.2L532,397l3.6,4.9H532.2z"/>
		<path class="st3" d="M537.6,392.4h2.7v9.5h-2.7V392.4z"/>
		<path class="st3" d="M552.8,399.2c0,1.8-1.2,2.7-3.6,2.7h-6v-9.5h5.8c2.3,0,3.5,0.9,3.5,2.6c0,1-0.5,1.7-1.4,2
			C552.2,397.3,552.8,398.1,552.8,399.2z M545.9,396.1h2.9c0.7,0,1-0.2,1-0.8c0-0.5-0.3-0.8-1-0.8h-2.9V396.1z M550,398.9
			c0-0.5-0.4-0.8-1.1-0.8h-3.1v1.6h3.1C549.7,399.7,550,399.4,550,398.9z"/>
		<path class="st3" d="M555.1,392.4h2.7v9.5h-2.7V392.4z"/>
		<path class="st3" d="M569.2,399.6v2.3h-8.5v-9.5h2.7v7.2H569.2z"/>
		<path class="st3" d="M578.3,394.7h-3.4v7.2h-2.7v-7.2h-3.4v-2.3h9.4V394.7z"/>
		<path class="st3" d="M585.6,400.1h-3.9l-0.7,1.8h-2.8l4.1-9.5h2.8l4.1,9.5h-2.9L585.6,400.1z M580.8,390.2c0-0.7,0.5-1.1,1.3-1.1
			c0.8,0,1.3,0.4,1.3,1.1c0,0.7-0.5,1.1-1.3,1.1C581.3,391.4,580.8,390.9,580.8,390.2z M583.7,395l-1.1,3.1h2.3L583.7,395z
			 M584.1,390.2c0-0.7,0.5-1.1,1.3-1.1c0.8,0,1.3,0.4,1.3,1.1c0,0.7-0.5,1.1-1.3,1.1C584.6,391.4,584.1,390.9,584.1,390.2z"/>
		<path class="st3" d="M598.6,394.7h-3.4v7.2h-2.7v-7.2h-3.4v-2.3h9.4V394.7z"/>
	</g>
	<g class="st4">
		<path class="st3" d="M54.8,262.9h1.5v-5.2h2v5.2h1.5v-6.1h2.2v8.8h-9.5v-8.8h2.2V262.9z"/>
		<path class="st3" d="M62.1,247.7l-3,2.1l3,2.1v3.2l-4.9-3.6l-4.6,3.4v-3.3l2.8-1.9l-2.8-1.9v-3.2l4.6,3.4l4.9-3.6V247.7z"/>
		<path class="st3" d="M55.8,233.2c2.1,0,3.3,1.3,3.3,3.7v2.7h3v2.7h-9.5V237C52.6,234.5,53.7,233.2,55.8,233.2z M55.8,236
			c-0.7,0-1,0.4-1,1.3v2.3h2v-2.3C56.8,236.4,56.5,236,55.8,236z"/>
		<path class="st3" d="M54.8,228.2h1.5V223h2v5.2h1.5v-6.1h2.2v8.8h-9.5v-8.8h2.2V228.2z"/>
		<path class="st3" d="M62.1,213.1l-3.3,2.2v1.7h3.3v2.7h-9.5V214c0-2.3,1.1-3.6,3.1-3.6c1.5,0,2.5,0.6,2.9,1.9l3.5-2.3V213.1z
			 M56.6,217v-2.6c0-0.8-0.3-1.2-0.9-1.2c-0.6,0-0.9,0.4-0.9,1.2v2.6H56.6z"/>
		<path class="st3" d="M54.8,199v3.4h7.2v2.7h-7.2v3.4h-2.3V199H54.8z"/>
		<path class="st3" d="M52.6,196.8v-2.7h9.5v2.7H52.6z"/>
		<path class="st3" d="M61,191.8l-2-0.9c0.8-1.1,1.1-2.4,1.1-3.9c0-1.3-0.3-1.9-0.8-1.9c-0.5,0-0.6,0.4-0.8,2.1
			c-0.3,3.2-1.1,4.3-3,4.3c-1.9,0-3.1-1.6-3.1-4.4c0-1.7,0.4-3.1,1.1-4.2l1.9,0.9c-0.6,0.9-0.9,2-0.9,3.1c0,1.2,0.3,1.9,0.8,1.9
			c0.5,0,0.7-0.4,0.8-2c0.3-3.2,1-4.3,3-4.3c2,0,3.1,1.6,3.1,4.6C62.3,188.9,61.8,190.6,61,191.8z"/>
		<path class="st3" d="M54.8,177.3h1.5v-5.2h2v5.2h1.5v-6.1h2.2v8.8h-9.5v-8.8h2.2V177.3z"/>
	</g>
	<g class="st4">
		<path class="st3" d="M777.6,315.2v3.6h7v1.2h-7v4.8h-1.4V314h9.5v1.2H777.6z"/>
		<path class="st3" d="M793.1,316.7l-0.1,1.4c-0.2,0-0.6-0.1-0.8-0.1c-1.4,0-2.4,0.5-3.4,1.7v5.2h-1.4v-8h1.4v1.7
			c0.9-1.3,2-1.9,3.6-1.9C792.7,316.6,792.9,316.7,793.1,316.7z"/>
		<path class="st3" d="M795.8,321.3c0.2,1.6,1.4,2.5,3.5,2.5c1.1,0,2-0.3,3-1l0.5,1.1c-1,0.7-2.2,1.1-3.6,1.1c-3,0-4.8-1.6-4.8-4.2
			c0-2.5,1.8-4.2,4.5-4.2c2.7,0,4.4,1.7,4.4,4.2c0,0.1,0,0.3,0,0.4H795.8z M795.8,320.1h6c-0.3-1.4-1.4-2.2-3-2.2
			C797.2,317.9,796.1,318.8,795.8,320.1z"/>
		<path class="st3" d="M806.3,321.3c0.2,1.6,1.4,2.5,3.5,2.5c1.1,0,2-0.3,3-1l0.5,1.1c-1,0.7-2.2,1.1-3.6,1.1c-3,0-4.8-1.6-4.8-4.2
			c0-2.5,1.8-4.2,4.5-4.2c2.7,0,4.4,1.7,4.4,4.2c0,0.1,0,0.3,0,0.4H806.3z M806.3,320.1h6c-0.3-1.4-1.4-2.2-3-2.2
			C807.8,317.9,806.6,318.8,806.3,320.1z"/>
		<path class="st3" d="M815.8,313.5h1.4v11.4h-1.4V313.5z"/>
		<path class="st3" d="M827.5,320.3v4.5h-1.4v-1.6c-0.9,1.1-2.2,1.8-3.8,1.8c-1.9,0-3-0.9-3-2.5c0-1.6,1.2-2.5,3.3-2.5
			c1.2,0,2.6,0.3,3.5,0.9v-0.5c0-1.7-0.8-2.5-2.8-2.5c-1.1,0-2.1,0.3-3,0.8l-0.5-1.1c1-0.7,2.2-1,3.7-1
			C826.2,316.6,827.5,317.8,827.5,320.3z M826.1,322c-0.8-0.5-2.1-0.8-3.3-0.8c-1.4,0-2.1,0.4-2.1,1.3c0,0.8,0.7,1.3,1.9,1.3
			c1.4,0,2.8-0.6,3.5-1.6V322z"/>
		<path class="st3" d="M837.9,319.7v5.1h-1.4V320c0-1.4-0.7-2.1-2.1-2.1c-1.3,0-2.3,0.6-3.1,1.6v5.3H830v-8h1.4v1.6
			c0.9-1.2,2.1-1.8,3.5-1.8C836.8,316.6,837.9,317.8,837.9,319.7z"/>
		<path class="st3" d="M840,320.9c0-2.6,1.8-4.2,4.5-4.2c1.2,0,2.2,0.3,3,0.8l-0.5,1.2c-0.8-0.5-1.6-0.8-2.5-0.8
			c-1.9,0-3.1,1.2-3.1,3s1.3,2.9,3.3,2.9c1,0,1.8-0.3,2.6-0.9l0.6,1.2c-0.9,0.6-2,0.9-3.3,0.9C841.7,325,840,323.4,840,320.9z"/>
		<path class="st3" d="M850.7,321.3c0.2,1.6,1.4,2.5,3.5,2.5c1.1,0,2-0.3,3-1l0.5,1.1c-1,0.7-2.2,1.1-3.6,1.1c-3,0-4.8-1.6-4.8-4.2
			c0-2.5,1.8-4.2,4.5-4.2c2.7,0,4.4,1.7,4.4,4.2c0,0.1,0,0.3,0,0.4H850.7z M850.7,320.1h6c-0.3-1.4-1.4-2.2-3-2.2
			C852.1,317.9,851,318.8,850.7,320.1z"/>
		<path class="st3" d="M865.8,316.7l-0.1,1.4c-0.2,0-0.6-0.1-0.8-0.1c-1.4,0-2.4,0.5-3.4,1.7v5.2h-1.4v-8h1.4v1.7
			c0.9-1.3,2-1.9,3.6-1.9C865.4,316.6,865.6,316.7,865.8,316.7z"/>
	</g>
	<g class="st4">
		<path class="st3" d="M188.5,102.9c0,1.9-1.3,2.9-3.8,2.9h-6.6V95h6.4c2.4,0,3.6,1,3.6,2.8c0,1.2-0.6,2-1.7,2.4
			C187.8,100.6,188.5,101.5,188.5,102.9z M179.6,99.7h4.9c1.5,0,2.2-0.6,2.2-1.7c0-1.2-0.8-1.8-2.2-1.8h-4.9V99.7z M187,102.8
			c0-1.2-0.8-1.8-2.4-1.8h-5.1v3.6h5.1C186.2,104.6,187,104,187,102.8z"/>
		<path class="st3" d="M190.6,95.4c0-0.5,0.4-0.9,0.9-0.9c0.6,0,0.9,0.4,0.9,0.9c0,0.5-0.4,0.9-0.9,0.9
			C191,96.3,190.6,95.9,190.6,95.4z M190.8,97.8h1.4v8h-1.4V97.8z"/>
		<path class="st3" d="M203,97.8v7.3c0,2.6-1.6,3.9-4.5,3.9c-1.3,0-2.5-0.3-3.4-0.9l0.5-1.2c0.9,0.5,1.8,0.8,2.8,0.8
			c2.1,0,3.2-1,3.2-2.8v-0.7c-0.8,1.2-1.9,1.8-3.3,1.8c-2.3,0-3.9-1.7-3.9-4.2c0-2.5,1.6-4.2,3.9-4.2c1.4,0,2.5,0.6,3.3,1.8v-1.6
			H203z M201.6,100.5c-0.7-1-1.9-1.6-3.1-1.6c-1.6,0-2.7,1.2-2.7,2.9c0,1.8,1.1,2.9,2.7,2.9c1.2,0,2.3-0.6,3.1-1.6V100.5z"/>
		<path class="st3" d="M219,101.8c0,2.5-1.6,4.2-3.9,4.2c-1.4,0-2.5-0.6-3.3-1.8v4.6h-1.4v-11h1.4v1.6c0.8-1.2,1.9-1.8,3.3-1.8
			C217.4,97.6,219,99.4,219,101.8z M217.6,101.8c0-1.8-1.1-2.9-2.7-2.9c-1.2,0-2.3,0.6-3.1,1.6v2.6c0.7,1,1.9,1.6,3.1,1.6
			C216.5,104.8,217.6,103.6,217.6,101.8z"/>
		<path class="st3" d="M221.2,94.5h1.4v11.4h-1.4V94.5z"/>
		<path class="st3" d="M232.8,101.3v4.5h-1.4v-1.6c-0.9,1.1-2.2,1.8-3.8,1.8c-1.9,0-3-0.9-3-2.5c0-1.6,1.2-2.5,3.3-2.5
			c1.2,0,2.6,0.3,3.5,0.9v-0.5c0-1.7-0.8-2.5-2.8-2.5c-1.1,0-2.1,0.3-3,0.8l-0.5-1.1c1-0.7,2.2-1,3.7-1
			C231.6,97.6,232.8,98.8,232.8,101.3z M231.5,103c-0.8-0.5-2.1-0.8-3.3-0.8c-1.4,0-2.1,0.4-2.1,1.3c0,0.8,0.7,1.3,1.9,1.3
			c1.4,0,2.8-0.6,3.5-1.6V103z"/>
		<path class="st3" d="M243.3,97.8l-4.2,9.1c-0.7,1.6-1.5,2.1-2.9,2.1c-0.7,0-1.3-0.1-1.7-0.3l0.4-1.2c0.3,0.2,0.8,0.3,1.3,0.3
			c0.9,0,1.3-0.4,1.7-1.4l0.4-0.9l-3.9-7.7h1.5l3.1,6.2l2.8-6.2H243.3z"/>
		<path class="st3" d="M245.6,102.3c0.2,1.6,1.4,2.5,3.5,2.5c1.1,0,2-0.3,3-1l0.5,1.1c-1,0.7-2.2,1.1-3.6,1.1c-3,0-4.8-1.6-4.8-4.2
			c0-2.5,1.8-4.2,4.5-4.2c2.7,0,4.4,1.7,4.4,4.2c0,0.1,0,0.3,0,0.4H245.6z M245.7,101.1h6c-0.3-1.4-1.4-2.2-3-2.2
			C247.1,98.9,246,99.8,245.7,101.1z"/>
		<path class="st3" d="M260.8,97.7l-0.1,1.4c-0.2,0-0.6-0.1-0.8-0.1c-1.4,0-2.4,0.5-3.4,1.7v5.2h-1.4v-8h1.4v1.7
			c0.9-1.3,2-1.9,3.6-1.9C260.3,97.6,260.6,97.7,260.8,97.7z"/>
		<path class="st3" d="M261.9,104.8l0.6-1.1c1.1,0.7,2.2,1.1,3.7,1.1c1.6,0,2.5-0.4,2.5-1.2c0-0.7-0.5-0.9-2.7-1.1
			c-2.8-0.2-3.7-0.8-3.7-2.4c0-1.5,1.4-2.4,3.7-2.4c1.4,0,2.7,0.3,3.6,1l-0.5,1.1c-0.8-0.6-1.9-0.9-3.1-0.9c-1.4,0-2.3,0.4-2.3,1.2
			c0,0.7,0.6,0.9,2.7,1.1c2.7,0.2,3.7,0.8,3.7,2.4c0,1.6-1.4,2.5-3.9,2.5C264.4,106,263,105.6,261.9,104.8z"/>
	</g>
	<g id="Gruppe_6827" transform="translate(-312.159 105.083)">
		<line id="Linie_75" class="st5" x1="1056.5" y1="207.3" x2="1075.1" y2="223.6"/>
		<line id="Linie_76" class="st5" x1="1075.1" y1="207.3" x2="1056.5" y2="223.6"/>
	</g>
	<g id="Gruppe_6828" transform="translate(-906.469 -114.09)">
		<line id="Linie_75-2" class="st5" x1="1056.5" y1="207.3" x2="1075.1" y2="223.6"/>
		<line id="Linie_76-2" class="st5" x1="1075.1" y1="207.3" x2="1056.5" y2="223.6"/>
	</g>
	<g id="Gruppe_6829" transform="translate(-355.85 -71.917)">
		<line id="Linie_75-3" class="st5" x1="1056.5" y1="207.3" x2="1075.1" y2="223.6"/>
		<line id="Linie_76-3" class="st5" x1="1075.1" y1="207.3" x2="1056.5" y2="223.6"/>
	</g>
</g>
</svg>
