<svg xmlns="http://www.w3.org/2000/svg" width="57.073" height="85.448" viewBox="0 0 57.073 85.448">
  <path id="Pfad_3528" data-name="Pfad 3528" d="M1039.456,436.755l-3.5-1.928.964-1.752a98.105,98.105,0,0,1,5.865-9.05,105.065,105.065,0,0,1,15.982-17.77c9.868-8.522,18.83-9.736,24.761-10.539.93-.126,1.808-.245,2.587-.379,2-.344,2.8-1.073,2.895-1.329-.1-.247-.9-.934-2.862-1.207l-.37-.051a55.275,55.275,0,0,1-11.11-2.476,52.963,52.963,0,0,1-15.375-8.617,73.359,73.359,0,0,1-8.931-8.425,118.188,118.188,0,0,1-13.423-18.194l-1-1.733,3.466-2,1,1.733a109.5,109.5,0,0,0,6.152,9.209c3.48,4.711,8.942,11.356,15.2,16.258,10.658,8.345,19.03,9.51,24.57,10.281l.372.052a9.445,9.445,0,0,1,4.332,1.589,4.235,4.235,0,0,1,.093,7.112,9.6,9.6,0,0,1-4.333,1.738c-.848.146-1.761.269-2.727.4-5.788.784-13.715,1.857-22.683,9.6a98.987,98.987,0,0,0-15.35,17.079A95.642,95.642,0,0,0,1040.42,435Z" transform="translate(-1035.937 -351.308)" fill="#fff"/>
</svg>
