<svg xmlns="http://www.w3.org/2000/svg" width="539.826" height="544.847" viewBox="0 0 539.826 544.847">
  <g id="Gruppe_7103" data-name="Gruppe 7103" transform="translate(10424.179 -11524.501)">
    <g id="Gruppe_6442" data-name="Gruppe 6442" transform="translate(-10371.236 11874.394)">
      <path id="Pfad_3463" data-name="Pfad 3463" d="M439.1,532.347l-19.7-20.1-20.1,19.7-7-7.142,27.242-26.7,26.7,27.242Z" transform="translate(-141.332 -505.175)" fill="#3d348b"/>
      <path id="Pfad_3464" data-name="Pfad 3464" d="M335.217,609.362h-10c0-17.168,11.785-29.159,28.658-29.159v10C342.541,590.2,335.217,597.723,335.217,609.362Z" transform="translate(-175.771 -465.322)" fill="#3d348b"/>
      <path id="Pfad_3465" data-name="Pfad 3465" d="M311.836,642.279c-14.742,0-22.1-9.78-26.964-16.251l-1.242-1.64,7.926-6.1,1.308,1.727c4.534,6.028,9.221,12.262,18.972,12.262Z" transform="translate(-196.998 -447.326)" fill="#3d348b"/>
      <path id="Pfad_3466" data-name="Pfad 3466" d="M284.312,615.507c-5.228-6.2-14.669-6.506-24.7-6.278l-.227-10c12.057-.274,24.5.259,32.575,9.828Z" transform="translate(-210.991 -455.872)" fill="#3d348b"/>
      <path id="Pfad_3467" data-name="Pfad 3467" d="M227.169,609.284l-.107-10c4.789-.051,9.083-.054,13.4-.056,4.1,0,8.221,0,12.811-.05l.1,10c-4.623.045-8.773.048-12.9.05C236.183,609.23,231.921,609.233,227.169,609.284Z" transform="translate(-227.115 -455.872)" fill="#3d348b"/>
      <path id="Pfad_3468" data-name="Pfad 3468" d="M318.685,644.847h-.243l.049-10c4.961.023,8.339-.84,10.038-2.57,2.438-2.482,2.808-7.738,2.623-15.98l10-.225c.212,9.429-.055,17.684-5.487,23.213C331.986,643.026,326.431,644.847,318.685,644.847Z" transform="translate(-181.623 -449.893)" fill="#3d348b"/>
      <path id="Pfad_3469" data-name="Pfad 3469" d="M360.8,597.46h-.243l.049-10c4.961.021,8.339-.84,10.038-2.57,2.438-2.481,2.808-7.738,2.623-15.98l10-.225c.212,9.429-.055,17.684-5.487,23.213C374.105,595.639,368.55,597.46,360.8,597.46Z" transform="translate(-160.648 -473.491)" fill="#3d348b"/>
      <path id="Pfad_3470" data-name="Pfad 3470" d="M377.218,562.312l-10-.058c.044-7.612.543-15.493,6-20.848,4.108-4.03,10.33-5.932,19.024-5.817l-.133,10c-5.809-.077-9.809.917-11.887,2.956C377.762,550.959,377.258,555.421,377.218,562.312Z" transform="translate(-154.855 -487.541)" fill="#3d348b"/>
      <path id="Pfad_3471" data-name="Pfad 3471" d="M400.712,553.254h-.243l.049-10c4.965.025,8.339-.84,10.038-2.57,2.438-2.481,2.808-7.738,2.624-15.98l10-.224c.211,9.429-.056,17.685-5.488,23.213C414.013,551.433,408.458,553.254,400.712,553.254Z" transform="translate(-140.774 -495.506)" fill="#3d348b"/>
    </g>
    <g id="Gruppe_6446" data-name="Gruppe 6446" transform="translate(-11263.707 10828.33)">
      <path id="Pfad_3447" data-name="Pfad 3447" d="M369.526,146.94h.008a27.938,27.938,0,0,1,14.523,4.525,25.544,25.544,0,0,1,11.42-4.315,21,21,0,0,1,2.384-.131,21.434,21.434,0,0,1,21.333,21.387c.161,8.2-3.939,16.8-11.857,24.873-7.387,7.533-18.822,14.926-23.086,14.926-5.892-.162-34.784-17.147-34.99-40.042a21.571,21.571,0,0,1,6.18-15.288A19.727,19.727,0,0,1,369.526,146.94Zm14.7,15.826a4.985,4.985,0,0,1-3.359-1.3c-.032-.028-5.161-4.519-11.335-4.529l.008-5-.019,5a9.8,9.8,0,0,0-6.983,2.975,11.506,11.506,0,0,0-3.283,8.159c.134,14.879,19.35,27.758,24.926,29.946,5.608-2.354,25.278-15.733,25.009-29.417a11.5,11.5,0,0,0-11.336-11.584h0a11.844,11.844,0,0,0-1.261.068,15.444,15.444,0,0,0-8.877,4.259,4.988,4.988,0,0,1-3.489,1.423Z" transform="translate(860.871 984.445)" fill="#ff3e41"/>
      <path id="Ellipse_18" data-name="Ellipse 18" d="M58.067-5A63.067,63.067,0,1,1-5,58.067,63.067,63.067,0,0,1,58.067-5Zm0,116.134A53.067,53.067,0,1,0,5,58.067a53.067,53.067,0,0,0,53.067,53.067Z" transform="translate(1187.034 1102.204)" fill="#ff3e41"/>
    </g>
    <path id="Linie_59" data-name="Linie 59" d="M5,60.633H-5V0H5Z" transform="translate(-10029.041 11873.359)" fill="#ff3e41"/>
    <path id="Pfad_3424" data-name="Pfad 3424" d="M756.475,257.368a60.4,60.4,0,1,1-60.4,60.4A60.4,60.4,0,0,1,756.475,257.368Zm0,110.8a50.4,50.4,0,1,0-50.4-50.4A50.4,50.4,0,0,0,756.475,368.168Zm0-82.423a32.02,32.02,0,1,1,0,64.04h0a32.02,32.02,0,1,1,0-64.04Zm0,59.04v-5a22.02,22.02,0,1,0-15.572-6.45,22.02,22.02,0,0,0,15.572,6.45Z" transform="translate(-11120.254 11294.125)" fill="#3d348b"/>
    <path id="Pfad_3455" data-name="Pfad 3455" d="M722.433,684.009,620.708,662.75a16.258,16.258,0,0,0-3.33-.345H603.861a26.309,26.309,0,0,1-26.28-26.279V610.833a26.311,26.311,0,0,1,26.279-26.28h15.782A16.267,16.267,0,0,0,623,584.2l98.745-20.88,1.89,2.75c.758,1.1,18.565,27.353,18.541,57.026-.025,31.734-17.135,57.093-17.863,58.157ZM603.86,594.553a16.3,16.3,0,0,0-16.279,16.28v25.293a16.3,16.3,0,0,0,16.28,16.279h13.517a26.26,26.26,0,0,1,5.374.556l95.034,19.86c4.155-7.091,14.376-26.86,14.394-49.73.017-21.378-10.727-41.409-15.032-48.574l-92.072,19.468a26.258,26.258,0,0,1-5.428.568Z" transform="translate(-10626.528 11217.137)" fill="#ff3e41"/>
    <path id="Pfad_3460" data-name="Pfad 3460" d="M668.427,729.032V560.223c-10.973-2.413-45.275-8.584-74.066.8-25.333,8.258-53.8,5.438-73.607,1.479v79.557c15.116,3.565,43.464,7.97,68.611-.839,13.477-4.721,28.959-6.8,46.018-6.172l-.366,9.993c-15.8-.58-30.053,1.31-42.346,5.616-27.966,9.8-58.973,4.8-74.967.954a9.044,9.044,0,0,1-6.95-8.825V561.372a9.066,9.066,0,0,1,10.879-8.892c18.666,3.833,45.892,6.776,69.629-.962,31.893-10.4,69.375-3.307,80.1-.886a9.008,9.008,0,0,1,7.062,8.861V729.032Z" transform="translate(-10679.752 11202.868)" fill="#ff3e41"/>
    <path id="Pfad_3498" data-name="Pfad 3498" d="M28.322-5A33.323,33.323,0,1,1-5,28.3,33.323,33.323,0,0,1,28.322-5Zm.011,56.646A23.324,23.324,0,1,0,5,28.319,23.324,23.324,0,0,0,28.333,51.646Z" transform="translate(-9955.625 11545.178)" fill="#ff3e41"/>
    <path id="Pfad_3517" data-name="Pfad 3517" d="M809.671,256.631a14.306,14.306,0,0,1,10.178,4.213l29.9,29.9,29.9-29.9a14.307,14.307,0,0,1,10.178-4.214h0A14.308,14.308,0,0,1,900,260.844l6.313,6.313a14.419,14.419,0,0,1,0,20.357l-29.9,29.9,29.9,29.9a14.393,14.393,0,0,1,0,20.358L900,373.985a14.4,14.4,0,0,1-20.358,0l-29.9-29.9-29.9,29.9a14.4,14.4,0,0,1-20.358,0l-6.315-6.316a14.393,14.393,0,0,1,0-20.357l29.9-29.9-29.9-29.9a14.419,14.419,0,0,1,0-20.358l6.314-6.314a14.308,14.308,0,0,1,10.182-4.209Zm40.08,44.591a8.8,8.8,0,0,1-6.262-2.6l-30.71-30.71a4.4,4.4,0,0,0-6.218,0l-6.312,6.311a4.405,4.405,0,0,0,0,6.218l30.71,30.71a8.853,8.853,0,0,1,0,12.523l-30.71,30.712a4.393,4.393,0,0,0,0,6.214l6.314,6.315a4.4,4.4,0,0,0,6.218,0l30.71-30.711a8.856,8.856,0,0,1,12.521,0l30.713,30.715a4.4,4.4,0,0,0,6.218,0l6.311-6.312a4.393,4.393,0,0,0,0-6.215l-30.712-30.714a8.853,8.853,0,0,1,0-12.523l30.71-30.71a4.405,4.405,0,0,0,0-6.218l-6.311-6.311a4.371,4.371,0,0,0-3.109-1.286h0a4.37,4.37,0,0,0-3.109,1.287l-30.711,30.709a8.794,8.794,0,0,1-6.261,2.6Z" transform="translate(-10856.073 11390.801)" fill="#3d348b"/>
    <g id="Gruppe_6316" data-name="Gruppe 6316" transform="translate(-10139.089 11840.832) rotate(-159.028)">
      <path id="Pfad_3411" data-name="Pfad 3411" d="M781.617,794a18.547,18.547,0,0,1-8.628-2.189l-22.259-11.6a19.352,19.352,0,0,1-8.209-26.073l101.717-197.36,48.314-42.347a9.315,9.315,0,0,1,5.761-2.055,9.136,9.136,0,0,1,9.134,9.321l-6.647,64.52L797.732,783.6C794.342,790.107,788.317,794,781.617,794Zm70.64-230.949L751.4,758.734a9.346,9.346,0,0,0,3.952,12.6l22.258,11.6A8.661,8.661,0,0,0,781.617,784c2.944,0,5.586-1.83,7.248-5.02L891.05,583.28l6.16-59.639Z" transform="translate(-745.331 -517.369)" fill="#3d348b"/>
      <path id="Linie_49" data-name="Linie 49" d="M47.729,30.822-2.332,4.423,2.332-4.423l50.061,26.4Z" transform="translate(99.266 46.479)" fill="#3d348b"/>
      <path id="Linie_50" data-name="Linie 50" d="M46.983,30.434-2.333,4.423,2.333-4.423,51.649,21.588Z" transform="translate(12.033 215.895)" fill="#3d348b"/>
      <path id="Linie_51" data-name="Linie 51" d="M4.428,176.521l-8.856-4.645L86.933-2.322l8.856,4.645Z" transform="translate(33.642 58.625)" fill="#3d348b"/>
    </g>
    <g id="Gruppe_6445" data-name="Gruppe 6445" transform="translate(-11353.944 10506.453)">
      <path id="Pfad_3458" data-name="Pfad 3458" d="M702.936,724.311l-.036-192.93a16.214,16.214,0,0,0-16.306-15.888H569.227a16.24,16.24,0,0,0-16.345,15.956V690.2h-10V531.38a26.258,26.258,0,0,1,26.384-25.887H686.555A26.232,26.232,0,0,1,712.9,531.311l.037,193Z" transform="translate(458.63 613.64)" fill="#ff3e41"/>
      <path id="Pfad_3459" data-name="Pfad 3459" d="M686.555,730.525H569.227a26.148,26.148,0,0,1-26.345-25.885V606.279h10V704.64a16.138,16.138,0,0,0,16.345,15.885H686.555A16.138,16.138,0,0,0,702.9,704.64l.036-64.64,10,.006-.036,64.64a26.147,26.147,0,0,1-26.345,25.879Z" transform="translate(458.63 689.922)" fill="#ff3e41"/>
      <path id="Linie_57" data-name="Linie 57" d="M.006,5.21l-.013-10L162.295-5l.013,10Z" transform="translate(1005.512 1378.621)" fill="#ff3e41"/>
      <path id="Linie_58" data-name="Linie 58" d="M157.574,5.907-.029,5,.029-5l157.6.907Z" transform="translate(1010.394 1160)" fill="#ff3e41"/>
    </g>
  </g>
</svg>
