<?xml version="1.0" encoding="utf-8"?>
<!-- Generator: Adobe Illustrator 25.3.1, SVG Export Plug-In . SVG Version: 6.00 Build 0)  -->
<svg version="1.1" id="Ebene_1" xmlns="http://www.w3.org/2000/svg" xmlns:xlink="http://www.w3.org/1999/xlink" x="0px" y="0px"
	 viewBox="0 0 200 125" style="enable-background:new 0 0 200 125;" xml:space="preserve">
<style type="text/css">
	.st0{fill:#FFFFFF;}
</style>
<g>
	<path id="Pfad_3106" class="st0" d="M79.5,10.5L64.5,58.7H56L44.9,23L33.8,58.7h-8.5L10.2,10.5h9L30,46.4l11.2-35.9h7.6l11.2,35.9
		l10.8-35.9H79.5z"/>
	<path id="Pfad_3107" class="st0" d="M175.5,102.9h-24.2l-5.2,11.5h-9l22.1-48.2h8.7l22.1,48.2h-9.3L175.5,102.9z M154.5,95.7h17.8
		l-8.9-20.5L154.5,95.7z"/>
	<path id="Pfad_3108" class="st0" d="M185.6,25.7c0,9.9-6.1,15.3-17.1,15.3H97.1v17.6h-8.6V10.5h80
		C179.6,10.5,185.6,15.9,185.6,25.7z M176.9,25.7c0-5.3-3.1-7.9-9.6-7.9H97.1v15.8h70.2C173.7,33.7,176.9,31.1,176.9,25.7z"/>
	<path id="Pfad_3109" class="st0" d="M138.7,66.3l-18.1,40.7L81.4,66.3H76l-39.3,40.8L19,66.3h-9l21.1,48.2l10.7,0l36.9-38.8
		l36.9,38.8l10.7,0l21.1-48.2L138.7,66.3z"/>
</g>
</svg>
