<svg xmlns="http://www.w3.org/2000/svg" width="326.3" height="275.343" viewBox="0 0 326.3 275.343">
  <g id="Gruppe_6469" data-name="Gruppe 6469" transform="translate(3.691 3)">
    <path id="Ellipse_20" data-name="Ellipse 20" d="M14.727-3A17.727,17.727,0,1,1-3,14.727,17.747,17.747,0,0,1,14.727-3Zm0,29.453A11.727,11.727,0,1,0,3,14.727,11.74,11.74,0,0,0,14.727,26.453Z" transform="translate(31.958)" fill="#fff"/>
    <g id="Gruppe_6467" data-name="Gruppe 6467" transform="translate(221.438 15.102)">
      <path id="Pfad_3479" data-name="Pfad 3479" d="M466.232,590.725H388.225a12.953,12.953,0,0,1-13.082-12.789V534.359a12.589,12.589,0,0,1,3.409-8.592,13.251,13.251,0,0,1,9.674-4.2h78.006a12.953,12.953,0,0,1,13.082,12.789v43.577A12.953,12.953,0,0,1,466.232,590.725ZM388.225,527.57a7.231,7.231,0,0,0-5.281,2.284,6.608,6.608,0,0,0-1.8,4.5v43.577a6.948,6.948,0,0,0,7.082,6.789h78.006a6.948,6.948,0,0,0,7.082-6.789V534.359a6.948,6.948,0,0,0-7.082-6.789Z" transform="translate(-378.143 -524.57)" fill="#fff"/>
      <path id="Pfad_3480" data-name="Pfad 3480" d="M425.084,565.544a3,3,0,0,1-1.913-.689L379.2,528.472l3.825-4.623,42.107,34.839,43.07-33.914,3.712,4.714L426.94,564.9A3,3,0,0,1,425.084,565.544Z" transform="translate(-376.133 -523.492)" fill="#fff"/>
    </g>
    <path id="Ellipse_21" data-name="Ellipse 21" d="M14.727-3A17.727,17.727,0,1,1-3,14.727,17.747,17.747,0,0,1,14.727-3Zm0,29.453A11.727,11.727,0,1,0,3,14.727,11.74,11.74,0,0,0,14.727,26.453Z" transform="translate(144.068 119.959)" fill="#fff"/>
    <path id="Ellipse_22" data-name="Ellipse 22" d="M14.727-3A17.727,17.727,0,1,1-3,14.727,17.747,17.747,0,0,1,14.727-3Zm0,29.453A11.727,11.727,0,1,0,3,14.727,11.74,11.74,0,0,0,14.727,26.453Z" transform="translate(257.517 239.89)" fill="#fff"/>
    <path id="Linie_64" data-name="Linie 64" d="M.69,132.763a3,3,0,0,1-3-2.984L-3,.016A3,3,0,0,1-.016-3,3,3,0,0,1,3-.016l.69,129.763a3,3,0,0,1-2.984,3.016Z" transform="translate(271.499 109.09)" fill="#fff"/>
    <path id="Pfad_3481" data-name="Pfad 3481" d="M378.147,629.752a3,3,0,0,1-3-3V544.63A17.147,17.147,0,0,0,358.019,527.5H285.682a3,3,0,0,1,0-6h72.337a23.154,23.154,0,0,1,23.128,23.128v82.122A3,3,0,0,1,378.147,629.752Z" transform="translate(-219.332 -509.514)" fill="#fff"/>
    <path id="Linie_65" data-name="Linie 65" d="M0,84.237a3,3,0,0,1-3-3V0A3,3,0,0,1,0-3,3,3,0,0,1,3,0V81.237A3,3,0,0,1,0,84.237Z" transform="translate(46.223 30.081)" fill="#fff"/>
    <path id="Pfad_3482" data-name="Pfad 3482" d="M438.366,713.146H361a23.154,23.154,0,0,1-23.128-23.128V607.9a3,3,0,0,1,6,0v82.122A17.147,17.147,0,0,0,361,707.146h77.37a3,3,0,0,1,0,6Z" transform="translate(-181.953 -453.029)" fill="#fff"/>
    <g id="Gruppe_6468" data-name="Gruppe 6468" transform="translate(0 132.606)">
      <path id="Ellipse_23" data-name="Ellipse 23" d="M38.251-3A41.251,41.251,0,1,1-3,38.251,41.3,41.3,0,0,1,38.251-3Zm0,76.5A35.251,35.251,0,1,0,3,38.251,35.291,35.291,0,0,0,38.251,73.5Z" transform="translate(0 20.392) rotate(-15.459)" fill="#fff"/>
      <path id="Pfad_3483" data-name="Pfad 3483" d="M278.432,688.754c-7.291,0-13.005-4.309-13.015-9.82l-.057-35.31,6-.01.057,35.31c0,1.813,3.018,3.835,7.034,3.83s7.026-2.039,7.023-3.853l-.059-35.309,6-.01.059,35.31c.007,5.519-5.709,9.851-13.014,9.862Z" transform="translate(-231.065 -561.46)" fill="#fff"/>
      <path id="Ellipse_24" data-name="Ellipse 24" d="M12.569-3A15.569,15.569,0,1,1-3,12.569,15.587,15.587,0,0,1,12.569-3Zm0,25.138A9.569,9.569,0,1,0,3,12.569,9.58,9.58,0,0,0,12.569,22.138Z" transform="translate(34.494 34.494)" fill="#fff"/>
      <path id="Pfad_3484" data-name="Pfad 3484" d="M303.008,650.258a3,3,0,0,1-3-3,17.11,17.11,0,0,0-4.96-10.865,10.157,10.157,0,0,0-7.548-3.1l-10.435-.138c-9.55.454-12.121,9.426-12.121,14.106a3,3,0,0,1-6,0c0-7.74,4.8-19.481,18.021-20.1l10.5.136a16.076,16.076,0,0,1,11.773,4.8,23.054,23.054,0,0,1,6.775,15.165A3,3,0,0,1,303.008,650.258Z" transform="translate(-235.411 -570.56)" fill="#fff"/>
    </g>
  </g>
</svg>
