<svg xmlns="http://www.w3.org/2000/svg" width="257.117" height="259.144" viewBox="0 0 257.117 259.144">
  <g id="Gruppe_6792" data-name="Gruppe 6792" transform="translate(3 3)">
    <path id="Pfad_3423" data-name="Pfad 3423" d="M715.716,164.742a11.68,11.68,0,0,1,8.313,3.444l28.623,28.621,29.458-28.621a11.756,11.756,0,0,1,16.626,0l5.883,5.883a11.77,11.77,0,0,1,0,16.626L776,219.316l28.621,29.46a11.77,11.77,0,0,1,0,16.626l-5.883,5.883a11.756,11.756,0,0,1-16.626,0l-28.621-28.623-29.46,28.623a11.756,11.756,0,0,1-16.626,0L701.52,265.4a11.771,11.771,0,0,1,0-16.626l28.623-28.623L701.52,190.695a11.77,11.77,0,0,1,0-16.626l5.883-5.883A11.68,11.68,0,0,1,715.716,164.742ZM753.07,202.98a6.545,6.545,0,0,1-4.662-1.933l-28.621-28.62a5.756,5.756,0,0,0-8.141,0l-5.883,5.883a5.764,5.764,0,0,0,0,8.141l28.623,28.621a6.6,6.6,0,0,1,0,9.323l-28.623,28.623a5.764,5.764,0,0,0,0,8.141l5.883,5.883a5.756,5.756,0,0,0,8.141,0l28.623-28.623a6.594,6.594,0,0,1,9.321,0l28.622,28.624a5.756,5.756,0,0,0,8.141,0l5.883-5.883a5.763,5.763,0,0,0,0-8.141L771.756,224.4a6.591,6.591,0,0,1,0-9.322l28.621-28.621a5.763,5.763,0,0,0,0-8.141l-5.883-5.883a5.756,5.756,0,0,0-8.141,0l-28.621,28.621A6.55,6.55,0,0,1,753.07,202.98Z" transform="translate(-701.077 -167.742)" fill="#fff"/>
    <path id="Pfad_3424" data-name="Pfad 3424" d="M752.706,259.368A54.629,54.629,0,1,1,698.077,314,54.69,54.69,0,0,1,752.706,259.368Zm0,103.257A48.629,48.629,0,1,0,704.077,314,48.684,48.684,0,0,0,752.706,362.625Zm0-76.811A28.181,28.181,0,1,1,724.523,314,28.213,28.213,0,0,1,752.706,285.814Zm0,50.363A22.181,22.181,0,1,0,730.523,314,22.206,22.206,0,0,0,752.706,336.177Z" transform="translate(-701.077 -112.481)" fill="#fff"/>
    <path id="Pfad_3425" data-name="Pfad 3425" d="M808.6,258.629a11.68,11.68,0,0,1,8.313,3.444l28.621,28.621L875,262.072a11.756,11.756,0,0,1,16.626,0l5.883,5.883a11.756,11.756,0,0,1,0,16.626L868.885,313.2l28.621,29.46a11.754,11.754,0,0,1,0,16.625l-5.882,5.884a11.759,11.759,0,0,1-16.626,0l-28.622-28.623-29.46,28.623a11.756,11.756,0,0,1-16.626,0l-5.883-5.885a11.754,11.754,0,0,1,0-16.625l28.621-28.622-28.621-29.458a11.756,11.756,0,0,1,0-16.626l5.883-5.883A11.68,11.68,0,0,1,808.6,258.629Zm37.353,38.239a6.55,6.55,0,0,1-4.662-1.931l-28.621-28.621a5.756,5.756,0,0,0-8.141,0l-5.883,5.883a5.756,5.756,0,0,0,0,8.141L827.27,308.96a6.591,6.591,0,0,1,0,9.324l-28.62,28.622a5.754,5.754,0,0,0,0,8.139l5.884,5.885a5.756,5.756,0,0,0,8.141,0L841.3,332.306a6.594,6.594,0,0,1,9.321,0l28.622,28.624a5.759,5.759,0,0,0,8.141,0l5.882-5.884a5.754,5.754,0,0,0,0-8.139l-28.622-28.623a6.591,6.591,0,0,1,0-9.322l28.621-28.621a5.756,5.756,0,0,0,0-8.141l-5.883-5.883a5.756,5.756,0,0,0-8.141,0l-28.623,28.621A6.545,6.545,0,0,1,845.956,296.867Z" transform="translate(-646.832 -112.913)" fill="#fff"/>
    <g id="Gruppe_6322" data-name="Gruppe 6322" transform="translate(128.166 0.357)">
      <path id="Pfad_3426" data-name="Pfad 3426" d="M784.51,289.151q-1.268,0-2.554-.014l.067-6c31.483.351,53.129-5.843,66.19-18.935,18.139-18.182,17.746-47.225,17.33-77.973-.075-5.518-.149-11.045-.112-16.517l6,.041c-.037,5.431.037,10.917.111,16.394.415,30.638.843,62.319-19.081,82.292C838.568,282.366,816.322,289.151,784.51,289.151Z" transform="translate(-781.99 -166.936)" fill="#fff"/>
      <path id="Pfad_3427" data-name="Pfad 3427" d="M875.12,208.025l-2.6-1.5c-.477-.275-11.759-6.828-18.758-15.765a36.22,36.22,0,0,1-7.195-14.6,29.927,29.927,0,0,1-7.2,15.025A76.881,76.881,0,0,1,820.5,206.557L817.874,208l-2.892-5.252,2.624-1.449a71.989,71.989,0,0,0,17.226-14.038c5.005-5.8,5.705-10.965,6.216-14.74l.284-1.931c.721-4.2,3.3-5.656,5.292-5.625s4.509,1.552,5.095,5.737a30.435,30.435,0,0,0,6.768,16.359c6.287,8.028,16.921,14.2,17.028,14.264l2.6,1.5Z" transform="translate(-760.345 -167.967)" fill="#fff"/>
    </g>
  </g>
</svg>
