<svg xmlns="http://www.w3.org/2000/svg" width="73.5" height="38.785" viewBox="0 0 73.5 38.785">
  <g id="Gruppe_6677" data-name="Gruppe 6677" transform="translate(-989.371 -351.991)">
    <path id="Pfad_3522" data-name="Pfad 3522" d="M1039.258,390.776l-2.626-1.446.723-1.313a48.09,48.09,0,0,1,9.617-11.807,19.231,19.231,0,0,1,11.069-4.719c.21-.029.415-.056.609-.084a22.229,22.229,0,0,1-11.426-4.889c-5.582-4.372-9.682-11.43-9.854-11.728l-.749-1.3,2.6-1.5.749,1.3c.039.068,3.989,6.858,9.1,10.864a19.4,19.4,0,0,0,10.354,4.331l.161.023a4.714,4.714,0,0,1,2.166.806,2.467,2.467,0,0,1,.055,4.093,4.781,4.781,0,0,1-2.162.879c-.379.065-.78.119-1.2.177a16.356,16.356,0,0,0-9.51,4.017,45.846,45.846,0,0,0-8.95,10.984Z" fill="#fff"/>
    <path id="Linie_74" data-name="Linie 74" d="M71.453,1.5H0v-3H71.453Z" transform="translate(989.371 371.389)" fill="#fff"/>
  </g>
</svg>
