<svg xmlns="http://www.w3.org/2000/svg" width="35.236" height="36.612" viewBox="0 0 35.236 36.612">
  <path id="Pfad_3524" data-name="Pfad 3524" d="M173.256,140.677h0a4.9,4.9,0,0,1,2.27.565L201,154.635a4.883,4.883,0,0,1,.007,8.639l-25.462,13.445a4.876,4.876,0,0,1-7.162-4.316l-.008-26.839a4.886,4.886,0,0,1,4.885-4.888Zm.008,32.612a.872.872,0,0,0,.41-.106l25.463-13.445a.883.883,0,0,0,0-1.562l-25.47-13.393a.873.873,0,0,0-.409-.105.908.908,0,0,0-.622.256.842.842,0,0,0-.263.63l.008,26.839A.888.888,0,0,0,173.264,173.288Z" transform="translate(-168.371 -140.677)"/>
</svg>
