<svg xmlns="http://www.w3.org/2000/svg" width="80.625" height="84" viewBox="0 0 80.625 84">
  <path id="Pfad_3523" data-name="Pfad 3523" d="M177.448,140.677h0a8.978,8.978,0,0,1,4.217,1.052l62.483,32.856a9.057,9.057,0,0,1,.013,16.05L181.7,223.617a8.973,8.973,0,0,1-4.23,1.059,9.2,9.2,0,0,1-6.313-2.557,8.968,8.968,0,0,1-2.764-6.52l-.02-65.839a8.967,8.967,0,0,1,2.761-6.524A9.2,9.2,0,0,1,177.448,140.677Zm.021,80a5.014,5.014,0,0,0,2.362-.6L242.293,187.1a5.072,5.072,0,0,0-.007-8.973L179.8,145.269a5.018,5.018,0,0,0-2.355-.592,5.16,5.16,0,0,0-3.542,1.441,5,5,0,0,0-1.535,3.641l.02,65.839a5,5,0,0,0,1.537,3.639A5.16,5.16,0,0,0,177.468,220.677Z" transform="translate(-168.371 -140.677)" fill="#fff"/>
</svg>
