<svg xmlns="http://www.w3.org/2000/svg" width="265.397" height="274.987" viewBox="0 0 265.397 274.987">
  <g id="Gruppe_6414" data-name="Gruppe 6414" transform="translate(3 3)">
    <path id="Linie_52" data-name="Linie 52" d="M83.945,49.741-1.449,2.627l2.9-5.253L86.844,44.488Z" transform="translate(98.115 180.249)" fill="#fff"/>
    <path id="Pfad_3447" data-name="Pfad 3447" d="M368.488,148.94h0a24.792,24.792,0,0,1,13.585,4.567A22,22,0,0,1,392.9,149.12a17.328,17.328,0,0,1,1.99-.107,18.324,18.324,0,0,1,18.223,18.3c.141,7.185-3.517,14.788-10.577,21.988-6.959,7.1-17.165,13.412-20.329,13.412-4.991-.138-30.77-15.709-30.95-35.673a18.43,18.43,0,0,1,5.278-13.064A16.738,16.738,0,0,1,368.488,148.94Zm13.7,11.42a2.994,2.994,0,0,1-2-.762c-.052-.046-5.266-4.648-11.684-4.658l0-3-.017,3A10.78,10.78,0,0,0,360.8,158.2a12.391,12.391,0,0,0-3.54,8.786c.148,16.5,22.427,29.19,25.209,29.745,2.137-.63,24.947-14.072,24.648-29.3a12.366,12.366,0,0,0-12.225-12.422,10.55,10.55,0,0,0-1.352.073,16.188,16.188,0,0,0-9.163,4.338A3.017,3.017,0,0,1,382.188,160.36Z" transform="translate(-176.91 -120.085)" fill="#fff"/>
    <path id="Ellipse_16" data-name="Ellipse 16" d="M54.116-3A57.116,57.116,0,1,1-3,54.116,57.181,57.181,0,0,1,54.116-3Zm0,108.232A51.116,51.116,0,1,0,3,54.116,51.174,51.174,0,0,0,54.116,105.232Z" transform="translate(0 96.679)" fill="#fff"/>
    <path id="Ellipse_17" data-name="Ellipse 17" d="M26.4-3A29.4,29.4,0,1,1-3,26.4,29.428,29.428,0,0,1,26.4-3Zm0,52.79A23.4,23.4,0,1,0,3,26.4,23.422,23.422,0,0,0,26.4,49.79Z" transform="translate(178.886 216.197)" fill="#fff"/>
    <path id="Ellipse_18" data-name="Ellipse 18" d="M54.116-3A57.116,57.116,0,1,1-3,54.116,57.181,57.181,0,0,1,54.116-3Zm0,108.232A51.116,51.116,0,1,0,3,54.116,51.174,51.174,0,0,0,54.116,105.232Z" transform="translate(151.165)" fill="#fff"/>
    <path id="Ellipse_19" data-name="Ellipse 19" d="M26.4-3A29.4,29.4,0,1,1-3,26.4,29.428,29.428,0,0,1,26.4-3Zm0,52.79A23.4,23.4,0,1,0,3,26.4,23.422,23.422,0,0,0,26.4,49.79Z" transform="translate(27.721 124.4)" fill="#fff"/>
    <path id="Linie_53" data-name="Linie 53" d="M1.633,37.853l-3.265-5.034L52.843-2.517l3.265,5.034Z" transform="translate(102.893 84.763)" fill="#fff"/>
  </g>
</svg>
