<?xml version="1.0" encoding="utf-8"?>
<!-- Generator: Adobe Illustrator 25.3.1, SVG Export Plug-In . SVG Version: 6.00 Build 0)  -->
<svg version="1.1" id="Ebene_1" xmlns="http://www.w3.org/2000/svg" xmlns:xlink="http://www.w3.org/1999/xlink" x="0px" y="0px"
	 viewBox="0 0 230.1 30" style="enable-background:new 0 0 230.1 30;" xml:space="preserve">
<style type="text/css">
	.st0{fill:#717070;}
</style>
<g id="Gruppe_15" transform="translate(-64)">
	<g id="Gruppe_5810" transform="translate(255.739)">
		<path id="Pfad_1807" class="st0" d="M9.6,8.2c0-0.2,0.1-0.4,0.1-0.7c0.5-1.6,1.9-2.8,3.6-3.1c0.9,0,1.8,0.3,2.4,0.9
			c0.9,0.9,1.8,1.8,2.7,2.7c0.4,0.3,0.4,0.9,0.1,1.3c0,0,0,0-0.1,0.1c-0.2,0.2-0.3,0.3-0.5,0.5c-0.4,0.2-0.7,0.1-1.1-0.3
			c-0.8-0.8-1.5-1.5-2.3-2.3c-0.7-0.8-1.5-0.8-2,0c-0.2,0.3-0.4,0.6-0.5,0.9c-0.1,0.4,0.1,0.8,0.4,1c0.8,0.8,1.6,1.6,2.4,2.4
			c0.4,0.3,0.6,0.8,0.3,1.3c-0.1,0.1-0.1,0.2-0.2,0.2c-0.7,0.7-1.1,0.7-1.7,0.1c-0.8-0.8-1.7-1.7-2.6-2.5C9.9,10.1,9.5,9.2,9.6,8.2z
			"/>
		<path id="Pfad_1808" class="st0" d="M13.3,23.7c-0.2,0-0.5,0-0.7-0.1C11,23.1,9.8,21.7,9.6,20c0-0.9,0.3-1.8,0.9-2.4
			c0.9-0.9,1.8-1.8,2.7-2.7c0.4-0.4,1-0.4,1.3,0c0,0,0,0,0,0l0.3,0.3c0.4,0.3,0.4,0.9,0.1,1.2c0,0-0.1,0.1-0.1,0.1
			c-0.8,0.8-1.6,1.6-2.4,2.4c-0.5,0.4-0.6,1.1-0.2,1.6c0.1,0.1,0.2,0.2,0.2,0.2l0.2,0.2c0.4,0.5,1.1,0.5,1.5,0.2
			c0.1,0,0.1-0.1,0.2-0.2c0.8-0.8,1.5-1.6,2.3-2.3c0.4-0.5,1.1-0.6,1.6-0.2c0.2,0.2,0.4,0.4,0.4,0.7c0.1,0.3,0.1,0.7-0.2,0.9
			c-0.9,0.9-1.9,1.9-2.8,2.8C15,23.5,14.2,23.8,13.3,23.7z"/>
		<path id="Pfad_1809" class="st0" d="M24.9,23.7c-0.9,0-1.7-0.4-2.3-1c-0.8-0.8-1.7-1.7-2.6-2.6c-0.5-0.5-0.5-1,0.2-1.7
			c0.3-0.4,0.9-0.4,1.3-0.1c0.1,0.1,0.1,0.1,0.2,0.2c0.8,0.8,1.6,1.6,2.4,2.4c0.4,0.5,1.1,0.6,1.5,0.2c0.1-0.1,0.1-0.1,0.2-0.2
			l0.3-0.3c0.5-0.4,0.5-1.1,0.1-1.5C26.1,19.1,26,19,25.9,19c-0.8-0.8-1.6-1.6-2.5-2.4c-0.4-0.3-0.5-0.8-0.2-1.1
			c0.4-0.5,0.8-0.9,1.3-0.8c0.2,0.1,0.4,0.2,0.5,0.3c0.9,0.8,1.8,1.7,2.6,2.6c1.3,1.3,1.3,3.4,0,4.7c0,0,0,0,0,0
			C27,23.1,26,23.6,24.9,23.7L24.9,23.7z"/>
		<path id="Pfad_1810" class="st0" d="M28.8,8.1c0.1,1-0.2,1.9-0.9,2.6c-0.9,0.9-1.8,1.8-2.7,2.7c-0.3,0.4-0.9,0.4-1.3,0.1
			c0,0-0.1-0.1-0.1-0.1L23.5,13c-0.4-0.3-0.4-0.9-0.1-1.2c0,0,0.1-0.1,0.1-0.1c0.8-0.8,1.6-1.6,2.4-2.4c0.5-0.3,0.6-1,0.3-1.6
			c-0.1-0.1-0.2-0.2-0.3-0.3l-0.2-0.2c-0.4-0.5-1.1-0.5-1.5-0.1c0,0-0.1,0.1-0.1,0.1c-0.8,0.8-1.6,1.6-2.4,2.5
			c-0.3,0.4-0.8,0.5-1.2,0.2c-0.1,0-0.1-0.1-0.2-0.2c-0.7-0.6-0.7-1.1-0.2-1.6c0.9-0.9,1.7-1.8,2.6-2.6c1.3-1.3,3.3-1.3,4.6-0.1
			c0,0,0,0,0.1,0.1C27.7,6,28.1,6.5,28.4,7C28.6,7.3,28.8,7.7,28.8,8.1z"/>
	</g>
	<path id="Pfad_2735" class="st0" d="M236.3,25.5h4V15.4h2.8l0.3-3.4h-3.1v-1.9c0-0.8,0.2-1.1,0.9-1.1h2.2V5.5h-2.8
		c-3,0-4.4,1.3-4.4,3.9V12h-2.1v3.4h2.1V25.5z"/>
	<path id="Pfad_2736" class="st0" d="M210.6,6.2c-2.4-0.1-4.1,1.3-5,4.1c0.4-0.2,0.9-0.3,1.3-0.3c0.9,0,1.3,0.5,1.2,1.5
		c-0.2,1-0.6,1.9-1.2,2.6c-0.7,1.2-1.3,1.7-1.7,1.7c-0.5,0-0.9-0.9-1.3-2.7c-0.1-0.5-0.4-1.9-0.7-4.1c-0.3-2-1.2-2.9-2.5-2.8
		c-1,0.3-1.9,0.8-2.6,1.6c-0.8,0.8-1.7,1.5-2.6,2.3l0.8,1.1c0.4-0.3,0.9-0.6,1.4-0.8c0.6,0,1.2,0.9,1.7,2.9l1.4,5.2
		c0.7,1.9,1.6,2.9,2.6,2.9c1.7,0,3.7-1.6,6.1-4.7c2.3-3,3.5-5.3,3.6-7.1C213.3,7.4,212.4,6.3,210.6,6.2z"/>
	<g id="Gruppe_5809" transform="translate(140.466 1.712)">
		<path id="Pfad_1805" class="st0" d="M25.2,12.2h-7.6v2.2h5.1c-0.4,2.5-2.5,4.3-5,4.2c-3.3,0-5.9-2.7-5.9-5.9s2.7-5.9,5.9-5.9
			c1.5,0,2.9,0.6,4,1.6l1.7-1.4c-1.5-1.5-3.6-2.3-5.7-2.4c-4.5,0-8.1,3.6-8.1,8.1c0,4.5,3.6,8.1,8.1,8.1c4.3,0,7.4-3.3,7.4-7.8
			L25.2,12.2z"/>
		<g id="Gruppe_3183" transform="translate(18.231 4.662)">
			<rect id="Rechteck_1526" x="9.6" y="7.6" class="st0" width="8.3" height="2"/>
			<rect id="Rechteck_1527" x="12.7" y="4.5" class="st0" width="2" height="8.3"/>
		</g>
	</g>
	<g id="Gruppe_5808" transform="translate(100.807)">
		<path id="Pfad_1803" class="st0" d="M28.4,4.5h-4.7l-7,12.2l4.5,7.9h4.7l-4.5-7.9L28.4,4.5z"/>
		<path id="Pfad_1804" class="st0" d="M14.8,8.2h-4.4l2.5,4.5l-3.3,5.5H14l3.3-5.5L14.8,8.2z"/>
	</g>
	<g id="Gruppe_5806" transform="translate(64 0.856)">
		<g id="Gruppe_3177">
			<rect id="Rechteck_1522" x="9.9" y="10.4" class="st0" width="3.7" height="11.8"/>
			<path id="Pfad_1800" class="st0" d="M11.7,8.8c1.2,0,2.2-0.9,2.2-2.1S13,4.5,11.8,4.5c-1.2,0-2.2,0.9-2.2,2.1c0,0,0,0,0,0
				C9.5,7.8,10.5,8.8,11.7,8.8C11.7,8.8,11.7,8.8,11.7,8.8z"/>
		</g>
		<path id="Pfad_1801" class="st0" d="M19.4,16c0-1.6,0.8-2.6,2.2-2.6c1.4,0,2,0.9,2,2.6v6.2h3.6v-7.5c0-3.2-1.8-4.7-4.3-4.7
			c-1.4,0-2.8,0.7-3.5,1.9v-1.6h-3.5v11.8h3.5V16z"/>
	</g>
</g>
</svg>
