<svg xmlns="http://www.w3.org/2000/svg" width="386" height="432.573" viewBox="0 0 386 432.573">
  <path id="Vereinigungsmenge_23" data-name="Vereinigungsmenge 23" d="M157.377,414.9l87.387-50.1a5,5,0,0,1,2.487-.662H354a26.974,26.974,0,0,0,27-27V32A26.973,26.973,0,0,0,354,5H32A26.974,26.974,0,0,0,5,32V337.135a26.974,26.974,0,0,0,27,27H188.054a5,5,0,0,1,3.884,8.149L157.377,414.9m-20.768,17.671,51.445-63.438H32a32,32,0,0,1-32-32V32A32,32,0,0,1,32,0H354a32,32,0,0,1,32,32V337.135a32,32,0,0,1-32,32H247.251Z" fill="#3d348b"/>
</svg>
