<svg xmlns="http://www.w3.org/2000/svg" width="318.339" height="274.403" viewBox="0 0 318.339 274.403">
  <g id="Gruppe_6461" data-name="Gruppe 6461" transform="translate(0.033 4.242)">
    <path id="Pfad_3461" data-name="Pfad 3461" d="M472.4,579.593h18.882a7.487,7.487,0,0,1,7.478,7.478V722.989a7.486,7.486,0,0,1-7.478,7.477h-235.4a7.486,7.486,0,0,1-7.478-7.477V656.66a7.487,7.487,0,0,1,7.478-7.478h18.882a7.487,7.487,0,0,1,7.478,7.478v39.967H464.925V655.192H414.7a7.487,7.487,0,0,1-7.478-7.478V629.356a7.487,7.487,0,0,1,7.478-7.478h50.225V587.071A7.486,7.486,0,0,1,472.4,579.593Zm18.882,144.873a1.5,1.5,0,0,0,1.478-1.477V587.071a1.5,1.5,0,0,0-1.478-1.478H472.4a1.5,1.5,0,0,0-1.478,1.478v37.807a3,3,0,0,1-3,3H414.7a1.5,1.5,0,0,0-1.478,1.478v18.358a1.5,1.5,0,0,0,1.478,1.478h53.225a3,3,0,0,1,3,3v47.436a3,3,0,0,1-3,3H279.247a3,3,0,0,1-3-3V656.66a1.5,1.5,0,0,0-1.478-1.478H255.887a1.5,1.5,0,0,0-1.478,1.478v66.329a1.5,1.5,0,0,0,1.478,1.477Z" transform="translate(-213.035 -460.306)" fill="#fff"/>
    <path id="Pfad_3462" data-name="Pfad 3462" d="M257.563,508.17H408.02a7.486,7.486,0,0,1,7.476,7.478V534.53a7.486,7.486,0,0,1-7.476,7.478H282.24l-.167,72.584a7.764,7.764,0,0,1-7.666,7.717l-18.381.169A7.517,7.517,0,0,1,248.409,615V516.348a7.489,7.489,0,0,1,5.459-7.194A7.412,7.412,0,0,1,257.563,508.17ZM408.02,536.008a1.5,1.5,0,0,0,1.476-1.478V515.648a1.5,1.5,0,0,0-1.476-1.478H257.563a1.432,1.432,0,0,0-.823.26l-.515.353-.613.119a1.5,1.5,0,0,0-1.2,1.446v98.539a1.525,1.525,0,0,0,1.477,1.592l18.467-.169a1.742,1.742,0,0,0,1.721-1.732l.181-78.57Z" transform="translate(-213.035 -501.7)" fill="#fff"/>
    <path id="Rechteck_1686" data-name="Rechteck 1686" d="M3.767-3h20.1a6.775,6.775,0,0,1,6.767,6.767V69.206a6.775,6.775,0,0,1-6.767,6.767H3.767A6.775,6.775,0,0,1-3,69.206V3.767A6.775,6.775,0,0,1,3.767-3Zm20.1,72.973a.768.768,0,0,0,.767-.767V3.767A.768.768,0,0,0,23.864,3H3.767A.768.768,0,0,0,3,3.767V69.206a.768.768,0,0,0,.767.767Z" transform="translate(104.5 74.235)" fill="#fff"/>
    <g id="Gruppe_6442" data-name="Gruppe 6442">
      <path id="Pfad_3463" data-name="Pfad 3463" d="M441.3,530.611l-20.775-21.194-21.194,20.775-4.2-4.285,25.479-24.975,24.975,25.479Z" transform="translate(-127.279 -505.175)" fill="#fff"/>
      <path id="Pfad_3464" data-name="Pfad 3464" d="M333.217,610.678h-6c0-16.766,11.492-28.475,27.946-28.475v6C342.036,588.2,333.217,597.235,333.217,610.678Z" transform="translate(-167.361 -458.793)" fill="#fff"/>
      <path id="Pfad_3465" data-name="Pfad 3465" d="M313.157,641.147c-14.41,0-21.465-9.38-26.615-16.228l-1.326-1.75,4.755-3.659,1.366,1.8c4.877,6.485,10.405,13.835,21.82,13.835Z" transform="translate(-192.064 -437.85)" fill="#fff"/>
      <path id="Pfad_3466" data-name="Pfad 3466" d="M287.4,614.659c-6.161-7.3-16.684-7.68-27.839-7.427l-.136-6c12.163-.276,24.7.234,32.561,9.556Z" transform="translate(-208.349 -447.796)" fill="#fff"/>
      <path id="Pfad_3467" data-name="Pfad 3467" d="M227.148,607.29l-.065-6c5.054-.055,9.585-.058,14.142-.06,4.319,0,8.661,0,13.5-.052l.059,6c-4.855.048-9.215.05-13.552.053C236.691,607.233,232.18,607.235,227.148,607.29Z" transform="translate(-227.115 -447.796)" fill="#fff"/>
      <path id="Pfad_3468" data-name="Pfad 3468" d="M318.714,644.135h-.261l.029-6c5.949.03,9.947-1.08,12.216-3.389,3.134-3.189,3.626-9.2,3.416-18.494l6-.135c.212,9.418-.028,17.636-5.135,22.834C331.505,642.485,326.332,644.135,318.714,644.135Z" transform="translate(-174.171 -440.838)" fill="#fff"/>
      <path id="Pfad_3469" data-name="Pfad 3469" d="M360.832,596.748h-.261l.029-6c5.952.03,9.947-1.08,12.217-3.389,3.133-3.189,3.625-9.2,3.416-18.494l6-.135c.212,9.418-.028,17.637-5.135,22.834C373.625,595.1,368.451,596.748,360.832,596.748Z" transform="translate(-149.76 -468.301)" fill="#fff"/>
      <path id="Pfad_3470" data-name="Pfad 3470" d="M375.218,563.482l-6-.035c.046-7.861.512-15.335,5.648-20.374,3.877-3.8,9.908-5.6,18.438-5.484l-.08,6c-6.849-.094-11.479,1.141-14.156,3.767C375.579,550.78,375.256,556.938,375.218,563.482Z" transform="translate(-143.018 -484.652)" fill="#fff"/>
      <path id="Pfad_3471" data-name="Pfad 3471" d="M400.74,552.542h-.261l.029-6c5.953.028,9.947-1.079,12.217-3.389,3.134-3.189,3.626-9.2,3.418-18.495l6-.134c.211,9.418-.03,17.637-5.137,22.834C413.532,550.892,408.359,552.542,400.74,552.542Z" transform="translate(-126.631 -493.922)" fill="#fff"/>
    </g>
  </g>
</svg>
