<svg xmlns="http://www.w3.org/2000/svg" width="357" height="255.01" viewBox="0 0 357 255.01">
  <g id="Gruppe_6385" data-name="Gruppe 6385" transform="translate(-675.598 -514.369)">
    <g id="Gruppe_6316" data-name="Gruppe 6316" transform="translate(781.682 517.369)">
      <path id="Pfad_3411" data-name="Pfad 3411" d="M778.6,769.379a15.442,15.442,0,0,1-7.18-1.829l-20.4-10.631a16.154,16.154,0,0,1-6.854-21.766l93.113-180.664,44.062-38.623a6.766,6.766,0,0,1,9.1.56,6.718,6.718,0,0,1,1.922,4.879l-6.054,58.715L791.967,760.7C789.136,766.133,784.138,769.379,778.6,769.379Zm63.486-211.128-92.6,179.663a10.151,10.151,0,0,0,4.3,13.685l20.4,10.631a9.511,9.511,0,0,0,4.408,1.15c3.309,0,6.243-1.988,8.049-5.455l93.809-179.662,5.921-57.325-3.065-2.814,1.978,2.256Z" transform="translate(-745.331 -517.369)" fill="#fff"/>
      <path id="Linie_49" data-name="Linie 49" d="M44.493,26.855-1.4,2.654,1.4-2.654l45.893,24.2Z" transform="translate(91 42.609)" fill="#fff"/>
      <path id="Linie_50" data-name="Linie 50" d="M43.81,26.5-1.4,2.654,1.4-2.654,46.609,21.192Z" transform="translate(11.031 197.919)" fill="#fff"/>
      <path id="Linie_51" data-name="Linie 51" d="M2.664,157.11l-5.328-2.759L77.963-1.379l5.328,2.759Z" transform="translate(33.968 53.744)" fill="#fff"/>
    </g>
    <path id="Pfad_3412" data-name="Pfad 3412" d="M846.21,563.263a3,3,0,0,1,1.4.345l86.089,45.27a14.217,14.217,0,0,1,.022,25.155l-86.072,45.451a3,3,0,0,1-4.4-2.652l-.008-27.645a3,3,0,0,1,1.6-2.654l47.51-25.088-47.522-24.99a3,3,0,0,1-1.6-2.654l-.009-27.536a3,3,0,0,1,3-3Zm3.032,108.591,81.673-43.127a8.217,8.217,0,0,0-.012-14.539l-81.691-42.957.007,20.756,50.958,26.8a3,3,0,0,1,0,5.308l-50.944,26.9Z" transform="translate(91.303 26.634)" fill="#fff"/>
    <path id="Pfad_3413" data-name="Pfad 3413" d="M770.684,563.263a3,3,0,0,1,3,3l-.008,27.536a3,3,0,0,1-1.6,2.654l-47.523,24.99,47.511,25.088a3,3,0,0,1,1.6,2.654l-.009,27.645a3,3,0,0,1-4.4,2.652l-86.072-45.451a14.217,14.217,0,0,1,.022-25.155l86.089-45.27A3,3,0,0,1,770.684,563.263Zm-3.007,28.724.006-20.756-81.692,42.957a8.217,8.217,0,0,0-.012,14.539l81.673,43.128.007-20.861-50.945-26.9a3,3,0,0,1,0-5.308Z" transform="translate(0 26.634)" fill="#fff"/>
  </g>
</svg>
